# xmcd
#
# Track frame offsets: 
#        150
#        14387
#        28655
#        43545
#        57249
#        70170
#        88299
#        104022
#        118941
#        133362
#        146640
#
# Disc length: 2149 seconds
#
# Revision: 1
# Processed by: cddbd v1.5.2PL0 Copyright (c) Steve Scherf et al.
# Submitted via: ExactAudioCopyFreeDBPlugin 1.0
#
DISCID=a808630b
DTITLE=Tim McGraw - PICKIN' ON TIM MCGRAW
DYEAR=2006
DGENRE=Country
TTITLE0=REAL GOOD MAN
TTITLE1=INDIAN OUTLAW
TTITLE2=MY NEXT THIRTY YEARS
TTITLE3=I LIKE IT, I LOVE IT
TTITLE4=SOMETHING LIKE THAT
TTITLE5=LIVE LIKE YOU WERE DYING
TTITLE6=MY BEST FRIEND
TTITLE7=PLEASE REMEMBER ME
TTITLE8=WHERE THE GREEN GRASS GROWS
TTITLE9=DOWN ON THE FARM
TTITLE10=AIN'T NO ANGELS
EXTD=
EXTT0=
EXTT1=
EXTT2=
EXTT3=
EXTT4=
EXTT5=
EXTT6=
EXTT7=
EXTT8=
EXTT9=
EXTT10=
PLAYORDER=
